# xmcd
#
# Track frame offsets: 
#        150
#        16802
#        29552
#        46427
#        63380
#        79055
#        91432
#        105982
#        122332
#        138685
#        151510
#        163062
#
# Disc length: 2426 seconds
#
# Revision: 0
# Processed by: cddbd v1.5.2PL0 Copyright (c) Steve Scherf et al.
# Submitted via: ExactAudioCopy v1.0b2
#
DISCID=8e09780c
DTITLE=Caballo Dorado - Payaso de Rodeo
DYEAR=1997
DGENRE=Country
TTITLE0=No rompas mi corazón
TTITLE1=Arriba y abajo
TTITLE2=Carretera 54
TTITLE3=Rock del ángel
TTITLE4=Chiquilla escandalosa
TTITLE5=Vaquera sexy
TTITLE6=Mucho mejor
TTITLE7=Reina morena
TTITLE8=El cruel
TTITLE9=Corazón vanidoso
TTITLE10=Mi dulce amor
TTITLE11=Payaso de rodeo
EXTD=
EXTT0=
EXTT1=
EXTT2=
EXTT3=
EXTT4=
EXTT5=
EXTT6=
EXTT7=
EXTT8=
EXTT9=
EXTT10=
EXTT11=
PLAYORDER=
